<svg width="198" height="170" viewBox="0 0 198 170" fill="none" xmlns="http://www.w3.org/2000/svg">
<path d="M122.066 107.14L102.144 77.2569C100.296 74.4844 95.7045 74.4844 93.8564 77.2569L73.9345 107.14C72.9178 108.667 72.8209 110.632 73.6865 112.252C74.5521 113.871 76.2398 114.883 78.0782 114.883H83.0587V149.746C83.0587 152.499 85.2863 154.727 88.0392 154.727H107.961C110.714 154.727 112.942 152.499 112.942 149.746V114.883H117.922C119.761 114.883 121.448 113.871 122.314 112.252C123.18 110.632 123.083 108.667 122.066 107.14Z" fill="url(#paint0_linear)"/>
<path d="M157.585 58.251C157.147 52.299 154.731 46.7464 150.475 42.4908C144.039 36.0547 134.35 34.1299 125.839 36.5059C117.655 23.3462 103.576 15.2735 88.0392 15.2735C64.6834 15.2735 45.4475 33.2254 43.4387 56.4743C26.0117 60.8761 13 76.7462 13 94.9611C13 116.931 31.2063 134.805 53.1759 134.805H73.0978V123.993C69.6347 122.772 66.6922 120.296 64.9022 116.945C62.3001 112.086 62.587 106.211 65.6417 101.62L85.5686 71.7318C88.2872 67.6512 92.937 65.2194 98.0002 65.2194C103.063 65.2194 107.713 67.6512 110.432 71.7318L130.354 101.615C133.413 106.211 133.7 112.086 131.098 116.945C129.308 120.296 126.365 122.772 122.902 123.993V134.805H142.824C164.794 134.805 183 116.931 183 94.9611C183 78.5239 172.69 64.2664 157.585 58.251Z" fill="url(#paint1_linear)"/>
<path d="M23.4865 70.9779L47.0954 64.4306C49.2154 63.8427 50.829 64.7442 51.417 66.8642L65.3144 116.977C65.9023 119.097 65.2508 121.664 63.1308 122.252L27.4765 132.14C25.3478 132.73 22.5414 131.131 21.9511 129.003L12.3481 94.3755L23.4865 70.9779Z" fill="#63B3ED"/>
<path d="M13.5409 92.4164L24.4425 89.3932C26.5721 88.8026 27.8319 86.5946 27.2416 84.466L23.3663 70.4924L13.5409 92.4164Z" fill="#0BC5EA"/>
<path d="M57.7791 121.661L22.1248 131.549C19.2098 132.357 16.1778 130.637 15.3673 127.714L5.7646 93.088C5.67374 92.7604 5.69663 92.4126 5.83011 92.1006L15.8719 68.4872C16.0509 68.0661 16.4106 67.7505 16.851 67.6283L40.9418 60.9474C43.8712 60.135 46.9138 61.8523 47.7243 64.775L61.6215 114.887C62.4321 117.809 60.7086 120.849 57.7791 121.661ZM8.79579 92.7922L18.2582 126.912C18.6267 128.241 20.0019 129.024 21.3231 128.658L56.9774 118.77C58.313 118.4 59.0992 117.017 58.7306 115.688L44.8334 65.5767C44.4649 64.2479 43.0791 63.4679 41.7435 63.8383L18.3494 70.326L8.79579 92.7922Z" fill="#42536F"/>
<path d="M18.5178 89.9985L8.13467 92.878C7.57769 93.0325 6.98113 92.8534 6.60169 92.4169C6.22278 91.9824 6.12798 91.3673 6.35725 90.8357L15.9455 68.6816C16.198 68.099 16.793 67.741 17.4258 67.7813C18.0597 67.8255 18.5973 68.2638 18.7673 68.8766L22.5904 82.6623C23.4119 85.6245 21.4328 89.1901 18.5178 89.9985ZM10.3559 89.1488L17.7161 87.1076C19.015 86.7474 20.0718 84.8064 19.6995 83.4641L17.0116 73.7719L10.3559 89.1488Z" fill="#42536F"/>
<path d="M67.2773 94.1189C67.8676 96.2476 66.6204 98.4521 64.4917 99.0424L46.1828 104.12C44.0541 104.71 41.8496 103.463 41.2593 101.334L38.8539 92.6608C38.2635 90.5321 39.5108 88.3276 41.6394 87.7373L59.9484 82.6597C62.0771 82.0694 64.2816 83.3167 64.8719 85.4453L67.2773 94.1189Z" fill="#0BC5EA"/>
<path d="M65.2408 99.8724L46.9318 104.95C44.0101 105.76 40.9723 104.042 40.162 101.12L37.7566 92.4462C36.9463 89.5244 38.665 86.4867 41.5868 85.6764L59.8957 80.5989C62.8175 79.7886 65.8553 81.5073 66.6655 84.429L69.0709 93.1027C69.8812 96.0244 68.1635 99.0619 65.2408 99.8724ZM42.3885 88.5673C41.0596 88.9358 40.279 90.3156 40.6475 91.6445L43.0529 100.318C43.4214 101.647 44.8012 102.428 46.1301 102.059L64.4391 96.9815C65.7679 96.613 66.5486 95.2332 66.18 93.9044L63.7746 85.2307C63.4061 83.9019 62.0263 83.1212 60.6975 83.4898L42.3885 88.5673V88.5673Z" fill="#42536F"/>
<path d="M49.5753 97.8078L49.0057 97.0338L46.2016 97.8115L46.1173 98.7875C46.0842 99.1693 46.0394 99.4307 45.9813 99.5766C45.9246 99.7241 45.7921 99.8262 45.5859 99.8834C45.4105 99.932 45.2365 99.9108 45.0658 99.819C44.8963 99.728 44.787 99.5996 44.7421 99.4377C44.7162 99.3442 44.7043 99.2416 44.7086 99.1336C44.7121 99.0226 44.7246 98.8697 44.7472 98.6704L45.2692 93.7012C45.285 93.5598 45.3017 93.3881 45.3221 93.1884C45.3432 92.9874 45.3772 92.8182 45.4228 92.6758C45.4709 92.5348 45.5492 92.4094 45.6584 92.2981C45.7682 92.1888 45.9183 92.1088 46.1101 92.0556C46.3037 92.0019 46.4765 91.9924 46.6279 92.0293C46.7788 92.0684 46.91 92.1337 47.0214 92.2284C47.1341 92.3206 47.2366 92.4281 47.3281 92.5449C47.4202 92.6636 47.539 92.8226 47.6855 93.0217L50.7219 96.973C50.9576 97.2729 51.0964 97.5001 51.1391 97.6543C51.1835 97.8142 51.1576 97.9791 51.0613 98.148C50.9642 98.3182 50.8222 98.4312 50.6343 98.4833C50.5245 98.5138 50.4242 98.5188 50.3352 98.5009C50.2467 98.485 50.1652 98.4495 50.0932 98.3957C50.0211 98.3452 49.9364 98.2566 49.8347 98.1333C49.7362 98.0101 49.6493 97.9024 49.5753 97.8078ZM46.278 96.6612L48.3392 96.0896L46.5085 93.5297L46.278 96.6612Z" fill="white"/>
<path d="M54.2419 94.462L52.9622 94.8169L53.5036 96.7692C53.5814 97.0496 53.5734 97.2791 53.4815 97.4603C53.3902 97.6402 53.2438 97.7597 53.0434 97.8152C52.8333 97.8735 52.644 97.8492 52.476 97.7412C52.3073 97.6344 52.1847 97.4432 52.108 97.1666L50.6334 91.8493C50.5482 91.5419 50.5585 91.3024 50.6626 91.1314C50.7677 90.9601 50.974 90.8323 51.2805 90.7473L53.0738 90.25C53.6028 90.1033 54.0229 90.0314 54.3306 90.0332C54.6348 90.0339 54.9147 90.0964 55.1705 90.2216C55.4269 90.3456 55.6441 90.5261 55.8242 90.7605C56.0051 90.9937 56.1392 91.2751 56.2306 91.6046C56.4257 92.3081 56.3571 92.8989 56.0242 93.3824C55.6917 93.8638 55.0976 94.2247 54.2419 94.462ZM53.0259 91.3944L52.0854 91.6552L52.6701 93.7636L53.6106 93.5028C53.9401 93.4114 54.2059 93.2993 54.4076 93.1697C54.6099 93.0389 54.7464 92.8796 54.8197 92.6912C54.8924 92.5008 54.8933 92.2795 54.8228 92.0251C54.7386 91.7216 54.5803 91.4988 54.3476 91.3558C54.0898 91.2083 53.6513 91.221 53.0259 91.3944Z" fill="white"/>
<path d="M58.4337 89.5501L59.1045 91.9689L61.0545 88.347C61.1478 88.1707 61.2315 88.0385 61.3065 87.9461C61.3799 87.8552 61.4934 87.7894 61.6476 87.7467C61.849 87.6908 62.0272 87.7047 62.1839 87.7868C62.3401 87.8711 62.4423 87.9964 62.4893 88.166C62.5462 88.3712 62.497 88.6018 62.3419 88.8617L61.0902 90.9418L63.825 93.2032C64.0175 93.3584 64.1676 93.4994 64.2769 93.6279C64.3864 93.7532 64.4607 93.8862 64.4989 94.024C64.5416 94.1782 64.5181 94.329 64.4279 94.4754C64.3387 94.6215 64.1907 94.7238 63.9835 94.7813C63.7898 94.835 63.6193 94.8376 63.4734 94.7868C63.3281 94.7379 63.1947 94.6576 63.0712 94.5414C62.9485 94.428 62.8383 94.3226 62.7415 94.2281L60.3851 92.145L59.5454 93.5588L59.9407 94.9841C60.0211 95.2741 60.0144 95.5043 59.9211 95.6806C59.8281 95.8579 59.679 95.975 59.4718 96.0325C59.3523 96.0656 59.2288 96.0656 59.1016 96.0335C58.975 96.0001 58.8667 95.9388 58.7776 95.8493C58.7099 95.7737 58.6536 95.6793 58.6126 95.5651C58.5712 95.4531 58.5193 95.2848 58.4589 95.067L57.0364 89.9376C56.9581 89.6553 56.9607 89.4252 57.046 89.2501C57.1301 89.0742 57.2795 88.9581 57.4934 88.8987C57.7035 88.8405 57.8923 88.8628 58.0621 88.9662C58.2297 89.0692 58.3543 89.2639 58.4337 89.5501Z" fill="white"/>
<path d="M163.503 41.9521L187.375 47.4634C189.519 47.9583 190.898 49.6108 190.403 51.7554L178.704 102.426C178.209 104.57 176.021 106.425 173.877 105.931L137.826 97.6073C135.672 97.1102 134.361 94.4551 134.858 92.3028L142.941 57.2907L163.503 41.9521Z" fill="#63B3ED"/>
<path d="M144.533 56.0481L155.557 58.5932C157.71 59.0901 160.262 57.8412 160.759 55.6879L164.021 41.5585L144.533 56.0481Z" fill="#0BC5EA"/>
<path d="M169.456 102.857L133.405 94.5341C130.534 93.8714 128.97 91.1355 129.687 88.0302L137.771 53.0181C137.845 52.6937 138.026 52.4029 138.284 52.1926L157.985 36.1419C158.345 35.8493 158.819 35.7391 159.269 35.8431L183.628 41.4668C186.699 42.1757 188.813 45.3025 188.154 48.1574L176.456 98.8276C175.798 101.683 172.527 103.566 169.456 102.857ZM140.578 54.1938L132.61 88.705C132.331 89.9171 132.676 91.2858 134.08 91.61L170.131 99.9332C171.565 100.264 173.25 99.3826 173.534 98.153L185.232 47.4828C185.516 46.2532 184.388 44.7211 182.954 44.3902L159.31 38.9315L140.578 54.1938Z" fill="#42536F"/>
<path d="M150.061 56.2979L139.561 53.8738C138.995 53.7431 138.555 53.2967 138.433 52.7286C138.309 52.1603 138.527 51.5723 138.988 51.22L158.378 36.4152C158.879 36.0311 159.568 36.0045 160.101 36.3471C160.631 36.6902 160.892 37.3281 160.749 37.9449L157.531 51.8842C156.866 54.7705 153.095 56.9984 150.061 56.2979ZM143.345 51.6675L150.736 53.3738C152.143 53.6986 154.314 52.485 154.609 51.2096L156.891 41.3266L143.345 51.6675Z" fill="#42536F"/>
<path d="M187.14 79.2276C186.643 81.38 184.495 82.7222 182.343 82.2253L163.83 77.9512C161.677 77.4543 160.335 75.3063 160.832 73.1539L162.857 64.3836C163.354 62.2312 165.502 60.889 167.654 61.3859L186.167 65.66C188.32 66.1569 189.662 68.3049 189.165 70.4573L187.14 79.2276Z" fill="#0BC5EA"/>
<path d="M182.605 83.3121L164.092 79.0381C161.137 78.3558 159.288 75.3961 159.97 72.4418L161.995 63.6715C162.677 60.7172 165.636 58.8674 168.591 59.5497L187.104 63.8238C190.059 64.506 191.908 67.4657 191.226 70.42L189.201 79.1903C188.519 82.1446 185.56 83.9944 182.605 83.3121ZM167.916 62.4728C166.574 62.1628 165.228 63.0027 164.918 64.3463L162.893 73.1166C162.583 74.4603 163.424 75.805 164.767 76.1149L183.28 80.389C184.622 80.699 185.968 79.8591 186.278 78.5155L188.303 69.7452C188.613 68.4015 187.772 67.0568 186.429 66.7469L167.916 62.4728V62.4728Z" fill="#42536F"/>
<path d="M168.199 72.3509L169.468 66.8565C169.533 66.571 169.648 66.3705 169.811 66.2574C169.974 66.1451 170.158 66.1138 170.364 66.1613C170.577 66.2106 170.733 66.3203 170.832 66.492C170.931 66.6626 170.947 66.8933 170.88 67.1827L169.612 72.6771C169.545 72.9665 169.429 73.1656 169.265 73.2784C169.1 73.3903 168.912 73.4238 168.699 73.3746C168.496 73.3278 168.345 73.216 168.247 73.0414C168.149 72.8659 168.133 72.6364 168.199 72.3509Z" fill="white"/>
<path d="M174.014 71.9877L172.72 71.6889L172.265 73.663C172.199 73.9465 172.084 74.1437 171.916 74.26C171.75 74.3734 171.565 74.4097 171.361 74.3627C171.149 74.3136 170.994 74.201 170.898 74.0268C170.802 73.8517 170.785 73.6262 170.85 73.3456L172.091 67.969C172.163 67.6592 172.285 67.4534 172.459 67.353C172.632 67.2524 172.874 67.2385 173.185 67.3103L174.998 67.7287C175.533 67.8524 175.936 67.9895 176.206 68.1381C176.474 68.2839 176.69 68.4724 176.855 68.7045C177.02 68.9355 177.126 69.198 177.172 69.489C177.219 69.781 177.203 70.0925 177.127 70.4247C176.962 71.137 176.619 71.6233 176.097 71.8896C175.575 72.154 174.881 72.1876 174.014 71.9877ZM174.41 68.7118L173.458 68.492L172.966 70.623L173.918 70.8427C174.251 70.9195 174.538 70.9477 174.778 70.9313C175.017 70.9126 175.214 70.837 175.367 70.7062C175.522 70.5736 175.628 70.3795 175.688 70.1233C175.758 69.8164 175.726 69.544 175.59 69.3085C175.434 69.0559 175.042 68.8576 174.41 68.7118Z" fill="white"/>
<path d="M180.968 75.622L180.837 74.6692L178.002 74.0145L177.462 74.8321C177.251 75.1529 177.086 75.3611 176.966 75.4616C176.845 75.5642 176.68 75.5907 176.472 75.5426C176.293 75.5014 176.152 75.3999 176.045 75.2368C175.939 75.0758 175.905 74.9119 175.943 74.7482C175.965 74.6527 176.003 74.5579 176.059 74.464C176.114 74.3691 176.199 74.2398 176.313 74.0764L179.143 69.9584C179.224 69.8405 179.321 69.6988 179.434 69.533C179.548 69.3662 179.659 69.234 179.768 69.1308C179.877 69.0297 180.005 68.9565 180.155 68.9111C180.303 68.8674 180.473 68.8687 180.667 68.9135C180.864 68.9589 181.02 69.0328 181.135 69.1374C181.249 69.2438 181.333 69.3638 181.387 69.5004C181.441 69.635 181.48 69.7784 181.504 69.9247C181.529 70.072 181.557 70.2694 181.591 70.5133L182.374 75.4355C182.438 75.8106 182.452 76.0765 182.416 76.2324C182.378 76.3941 182.277 76.5277 182.111 76.6299C181.945 76.7333 181.766 76.7649 181.576 76.7211C181.465 76.6954 181.375 76.6519 181.305 76.5938C181.234 76.5373 181.18 76.4665 181.143 76.3859C181.104 76.3073 181.07 76.1886 181.041 76.0319C181.012 75.8764 180.987 75.7403 180.968 75.622ZM178.618 73.0401L180.702 73.5213L180.314 70.3991L178.618 73.0401Z" fill="white"/>
<defs>
<linearGradient id="paint0_linear" x1="98.0003" y1="75.1775" x2="98.0003" y2="154.727" gradientUnits="userSpaceOnUse">
<stop stop-color="#1C7E99"/>
<stop offset="1" stop-color="#1C7E99" stop-opacity="0"/>
</linearGradient>
<linearGradient id="paint1_linear" x1="98" y1="15.2735" x2="98" y2="134.805" gradientUnits="userSpaceOnUse">
<stop stop-color="#1C7E99"/>
<stop offset="1" stop-color="#1C7E99" stop-opacity="0"/>
</linearGradient>
</defs>
</svg>
